<mxfile host="Electron" modified="2024-12-13T08:10:56.958Z" agent="Mozilla/5.0 (Windows NT 10.0; Win64; x64) AppleWebKit/537.36 (KHTML, like Gecko) draw.io/21.3.7 Chrome/112.0.5615.204 Electron/24.5.0 Safari/537.36" etag="8hHPE1ygyS4tHDs_oeLR" version="21.3.7" type="device">
  <diagram name="第 1 页" id="SThhjYVRoPonYVbGz4Rb">
    <mxGraphModel dx="1036" dy="614" grid="1" gridSize="10" guides="1" tooltips="1" connect="1" arrows="1" fold="1" page="1" pageScale="1" pageWidth="827" pageHeight="1169" math="0" shadow="0">
      <root>
        <mxCell id="0" />
        <mxCell id="1" parent="0" />
        <mxCell id="-iSKdlwbcoZejbdQZmy2-4" value="" style="shape=image;verticalLabelPosition=bottom;labelBackgroundColor=default;verticalAlign=top;aspect=fixed;imageAspect=0;image=data:image/png,iVBORw0KGgoAAAANSUhEUgAAA2cAAAJgCAYAAAAOORtpAAAAAXNSR0IArs4c6QAAIABJREFUeF7t2U2uLctWHlBuJ3g9MCW6w5NwAQmagat0A9kVJGiOXeL1ADpx0DLSFhL2WxlBzoj5M251ZUbMOb4t5f10fvv169evP/EfAQIECBAgQIAAAQIECFwV+E05u+rvcgIECBAgQIAAAQIECPxfAeXMHwIBAgQIECBAgAABAgQSCChnCUIwAgECBAgQIECAAAECBJQzfwMECBAgQIAAAQIECBBIIKCcJQjBCAQIECBAgAABAgQIEFDO/A0QIECAAAECBAgQIEAggYByliAEIxAgQIAAAQIECBAgQEA58zdAgAABAgQIECBAgACBBALKWYIQjECAAAECBAgQIECAAAHlzN8AAQIECBAgQIAAAQIEEggoZwlCMAIBAgQIECBAgAABAgSUM38DBAgQIECAAAECBAgQSCCgnCUIwQgECBAgQIAAAQIECBBQzvwNECBAgAABAgQIECBAIIGAcpYgBCMQOCrwf/7X0etcFizw538VfIHjTwr84Xe/P3mduwgQIDBa4L/9yz+m2185SxeJgQgECyhnwcCHj1fODoPHXqecxfo6nQABAv9RQDnz90CAwH0B5ex+Bm9OoJy9qXn9LOXsegQGIEBgkIByNihsqxJIK6CcpY1mazDlbIst60vKWdZkzEWAQEcB5axjqnYiUE1AOauW2B+fVzlrlady1ipOyxAgkFxAOUsekPEIjBBQznrFrJy1ylM5axWnZQgQSC6gnCUPyHgERggoZ71iVs5a5amctYrTMgQIJBdQzpIHZDwCIwSUs14xK2et8lTOWsVpGQIEkgsoZ8kDMh6BEQLKWa+YlbNWeSpnreK0DAECyQWUs+QBGY/ACAHlrFfMylmrPJWzVnFahgCB5ALKWfKAjEdghIBy1itm5axVnspZqzgtQ4BAcgHlLHlAxiMwQkA56xWzctYqT+WsVZyWIUAguYByljwg4xEYIaCc9YpZOWuVp3LWKk7LECCQXEA5Sx6Q8QiMEFDOesWsnLXKUzlrFadlCBBILqCcJQ/IeARGCChnvWJWzlrlqZy1itMyBAgkF1DOkgdkPAIjBJSzXjErZ63yVM5axWkZAgSSCyhnyQMyHoERAspZr5iVs1Z5Kmet4rQMAQLJBZSz5AEZj8AIAeWsV8zKWas8lbNWcVqGAIHkAspZ8oCMR2CEgHLWK2blrFWeylmrOC1DgEByAeUseUDGIzBCQDnrFbNy1ipP5axVnJYhQCC5gHKWPCDjERghoJz1ilk5a5WnctYqTssQIJBcQDlLHpDxCIwQUM56xayctcpTOWsVp2UIEEguoJwlD8h4BEYIKGe9YlbOWuWpnLWK0zIECCQXUM6SB2Q8AiMElLNeMStnrfJUzlrFaRkCBJILKGfJAzIegRECylmvmJWzVnkqZ63itAwBAskFlLPkARmPwAgB5axXzMpZqzyVs1ZxWoYAgeQCylnygIxHYISActYrZuWsVZ7KWas4LUOAQHIB5Sx5QMYjMEJAOesVs3LWKk/lrFWcliFAILmAcpY8IOMRGCGgnPWKWTlrlady1ipOyxAgkFxAOUsekPEIjBBQznrFrJy1ylM5axWnZQgQSC6gnCUPyHgERggoZ71iVs5a5amctYrTMgQIJBdQzpIHZDwCIwSUs14xK2et8lTOWsVpGQIEkgsoZ8kDMh6BEQLKWa+YlbNWeSpnreK0DAECyQWUs+QBGY/ACAHlrFfMylmrPJWzVnFahgCB5ALKWfKAjEdghIBy1itm5axVnspZqzgtQ4BAcgHlLHlAxiMwQkA56xWzctYqT+WsVZyWIUAguYByljwg4xEYIaCc9YpZOWuVp3LWKk7LECCQXEA5Sx6Q8QiMEFDOesWsnLXKUzlrFadlCBBILqCcJQ/IeARGCChnvWJWzlrlqZy1itMyBAgkF1DOkgdkPAIjBJSzXjErZ63yVM5axWkZAgSSCyhnyQMyHoERAspZr5iVs1Z5Kmet4rQMAQLJBZSz5AEZj8AIAeWsV8zKWas8lbNWcVqGAIHkAspZ8oCMR2CEgHLWK2blrFWeylmrOC1DgEByAeUseUDGIzBCQDnrFbNy1ipP5axVnJYhQCC5gHKWPCDjERghoJz1ilk5a5WnctYqTssQIJBcQDlLHpDxCIwQUM56xayctcpTOWsVp2UIEEguoJwlD8h4BEYIKGe9YlbOWuWpnLWK0zIECCQXUM6SB2Q8AiMElLNeMStnrfJUzlrFaRkCBJILKGfJAzIegRECylmvmJWzVnkqZ63itAwBAskFlLPkARmPwAgB5axXzMpZqzyVs1ZxWoYAgeQCylnygIxHYISActYrZuWsVZ7KWas4LUOAQHIB5Sx5QMYjMEJAOesVs3LWKk/lrFWcliFAILmAcpY8IOMRGCGgnPWKWTlrlady1ipOyxAgkFxAOUsekPEIjBBQznrFrJy1ylM5axWnZQgQSC6gnCUPyHgERggoZ71iVs5a5amctYrTMgQIJBdQzpIHZDwCIwSUs14xK2et8lTOWsVpGQIEkgsoZ8kDMh6BEQLKWa+YlbNWeSpnreK0DAECyQWUs+QBGY/ACAHlrFfMylmrPJWzVnFahgCB5ALKWfKAjEdghIBy1itm5axVnspZqzgtQ4BAcgHlLHlAxiMwQkA56xWzctYqT+WsVZyWIUAguYByljwg4xEYIaCc9YpZOWuVp3LWKk7LECCQXEA5Sx6Q8QiMEFDOesWsnLXKUzlrFadlCBBILqCcJQ/IeARGCChnvWJWzlrlqZy1itMyBAgkF1DOkgdkPAIjBJSzXjErZ63yVM5axWkZAgSSCyhnyQMyHoERAspZr5iVs1Z5Kmet4rQMAQLJBZSz5AEZj8AIAeWsV8zKWas8lbNWcVqGAIHkAspZ8oCMR2CEgHLWK2blrFWeylmrOC1DgEByAeUseUDGIzBCQDnrFbNy1ipP5axVnJYhQCC5gHKWPCDjERghoJz1ilk5a5WnctYqTssQIJBcQDlLHpDxCIwQUM56xayctcpTOWsVp2UIEEguoJwlD8h4BEYIKGe9YlbOWuWpnLWK0zIECCQXUM6SB2Q8AiMElLNeMStnrfJUzlrFaRkCBJILKGfJAzIegRECylmvmJWzVnkqZ63itAwBAskFlLPkARmPwAgB5axXzMpZqzyVs1ZxWoYAgeQCylnygIxHYISActYrZuWsVZ7KWas4LUOAQHIB5Sx5QMYjMEJAOesVs3LWKk/lrFWcliFAILmAcpY8IOMRGCGgnPWKWTlrlady1ipOyxAgkFxAOUsekPEIjBBQznrFrJy1ylM5axWnZQgQSC6gnCUPyHgERggoZ71iVs5a5amctYrTMgQIJBdQzpIHZDwCIwSUs14xK2et8lTOWsVpGQIEkgsoZ8kDMh6BEQLKWa+YlbNWeSpnreK0DAECyQWUs+QBGY/ACAHlrFfMylmrPJWzVnFahgCB5ALKWfKAjEdghIBy1itm5axVnspZqzgtQ4BAcgHlLHlAxiMwQkA56xWzctYqT+WsVZyWIUAguYByljwg4xEYIaCc9YpZOWuVp3LWKk7LECCQXEA5Sx6Q8QiMEFDOesWsnLXKUzlrFadlCBBILqCcJQ/IeARGCChnvWJWzlrlqZy1itMyBAgkF1DOkgdkPAIjBJSzXjErZ63yVM5axWkZAgSSCyhnyQMyHoERAspZr5iVs1Z5Kmet4rQMAQLJBZSz5AEZj8AIAeWsV8zKWas8lbNWcVqGAIHkAspZ8oCMR2CEgHLWK2blrFWeylmrOC1DgEByAeUseUDGIzBCQDnrFbNy1ipP5axVnJYhQCC5gHKWPCDjERghoJz1ilk5a5WnctYqTssQIJBcQDlLHpDxCIwQUM56xayctcpTOWsVp2UIEEguoJwlD8h4BEYIKGe9YlbOWuWpnLWK0zIECCQXUM6SB2Q8AiMElLNeMStnrfJUzlrFaRkCBJILKGfJAzIegRECylmvmJWzVnkqZ63itAwBAskFlLPkARmPwAgB5axXzMpZqzyVs1ZxWoYAgeQCylnygIxHYISActYrZuWsVZ7KWas4LUOAQHIB5Sx5QMYjMEJAOesVs3LWKk/lrFWcliFAILmAcpY8IOMRGCGgnPWKWTlrlady1ipOyxAgkFxAOUsekPEIjBBQznrFrJy1ylM5axWnZQgQSC6gnCUPyHgERggoZ71iVs5a5amctYrTMgQIJBdQzpIHZDwCIwSUs14xK2et8lTOWsVpGQIEkgsoZ8kDMh6BEQLKWa+YlbNWeSpnreK0DAECyQWUs+QBGY/ACAHlrFfMylmrPJWzVnFahgCB5ALKWfKAjEdghIBy1itm5axVnspZqzgtQ4BAcgHlLHlAxiMwQkA56xWzctYqT+WsVZyWIUAguYByljwg4xEYIaCc9YpZOWuVp3LWKk7LECCQXEA5Sx6Q8QiMEFDOesWsnLXKUzlrFadlCBBILqCcJQ/IeARGCChnvWJWzlrlqZy1itMyBAgkF1DOkgdkPAIjBJSzXjErZ63yVM5axWkZAgSSCyhnyQMyHoERAspZr5iVs1Z5Kmet4rQMAQLJBZSz5AEZj8AIAeWsV8zKWas8lbNWcVqGAIHkAspZ8oCM958F/uHv/w5LM4H//jf/o9lGs9f55z/9i9kAzbbP+D8KzYiPruMbepT7yGV/+dd/e+Qel8wV+O3Xr1+/5q5v828CPizfhOr9rpzVy+yPTayc9cpTOeuVp29orzw/2yhn/TLNtpFyli2RZPP4sCQL5IVxlLMXEBMdoZwlCuOFUZSzFxATHeEbmiiMl0ZRzl6CdMz/V0A588fxRwV8WPr9gShnvTJVznrlqZz1ytM3tFee/uWsX54ZN1LOMqaSaCYflkRhvDSKcvYSZJJjlLMkQbw0hnL2EmSSY3xDkwTx4hj+5exFTEf9PwWUM38Y/uVs2N+ActYrcOWsV57KWa88lbNeefqXs355ZtxIOcuYSqKZfFgShfHSKMrZS5BJjlHOkgTx0hjK2UuQSY7xDU0SxItj+JezFzEd5V/O/A2sC/iwrJtlf0M5y57Q2nzK2ZpX9qeVs+wJrc3nG7rmVeFp5axCSrVn9C9ntfMLn96HJZz4+AXK2XHy0AuVs1De44crZ8fJQy/0DQ3lvXK4cnaFfdSlytmouNeX9WFZN8v+hnKWPaG1+ZSzNa/sTytn2RNam883dM2rwtPKWYWUas+onNXOL3x6H5Zw4uMXKGfHyUMvVM5CeY8frpwdJw+90Dc0lPfK4crZFfZRlypno+JeX9aHZd0s+xvKWfaE1uZTzta8sj+tnGVPaG0+39A1rwpPK2cVUqo9o3JWO7/w6X1YwomPX6CcHScPvVA5C+U9frhydpw89ELf0FDeK4crZ1fYR12qnI2Ke31ZH5Z1s+xvKGfZE1qbTzlb88r+tHKWPaG1+XxD17wqPK2cVUip9ozKWe38wqf3YQknPn6BcnacPPRC5SyU9/jhytlx8tALfUNDea8crpxdYR91qXI2Ku71ZX1Y1s2yv6GcZU9obT7lbM0r+9PKWfaE1ubzDV3zqvC0clYhpdozKme18wuf3oclnPj4BcrZcfLQC5WzUN7jhytnx8lDL/QNDeW9crhydoV91KXK2ai415f1YVk3y/6GcpY9obX5lLM1r+xPK2fZE1qbzzd0zavC08pZhZRqz6ic1c4vfHoflnDi4xcoZ8fJQy9UzkJ5jx+unB0nD73QNzSU98rhytkV9lGXKmej4l5f1odl3Sz7G8pZ9oTW5lPO1ryyP62cZU9obT7f0DWvCk8rZxVSqj2jclY7v/DpfVjCiY9foJwdJw+9UDkL5T1+uHJ2nDz0Qt/QUN4rhytnV9hHXaqcjYp7fVkflnWz7G8oZ9kTWptPOVvzyv60cpY9obX5fEPXvCo8rZxVSKn2jMpZ7fzCp/dhCSc+foFydpw89ELlLJT3+OHK2XHy0At9Q0N5rxyunF1hH3WpcjYq7vVlfVjWzbK/oZxlT2htPuVszSv708pZ9oTW5vMNXfOq8LRyViGl2jMqZ7XzC5/ehyWc+PgFytlx8tALlbNQ3uOHK2fHyUMv9A0N5b1yuHJ2hX3UpcrZqLjXl/VhWTfL/oZylj2htfmUszWv7E8rZ9kTWpvPN3TNq8LTylmFlGrPqJzVzi98eh+WcOLjFyhnx8lDL1TOQnmPH66cHScPvdA3NJT3yuHK2RX2UZcqZ6PiXl/Wh2XdLPsbyln2hNbmU87WvLI/rZxlT2htPt/QNa8KTytnFVKqPaNyVju/8Ol9WMKJj1+gnB0nD71QOQvlPX64cnacPPRC39BQ3iuHK2dX2EddqpyNint9WR+WdbPsbyhn2RNam085W/PK/rRylj2htfl8Q9e8KjytnFVIqfaMylnt/MKn92EJJz5+gXJ2nDz0QuUslPf44crZcfLQC31DQ3mvHK6cXWEfdalyNiru9WV9WNbNsr+hnGVPaG0+5WzNK/vTyln2hNbm8w1d86rwtHJWIaXaMypntfMLn96HJZz4+AXK2XHy0AuVs1De44crZ8fJQy/0DQ3lvXK4cnaFfdSlytmouNeX9WFZN8v+hnKWPaG1+ZSzNa/sTytn2RNam883dM2rwtPKWYWUas+onNXOL3x6H5Zw4uMXKGfHyUMvVM5CeY8frpwdJw+90Dc0lPfK4crZFfZRlypno+JeX9aHZd0s+xvKWfaE1uZTzta8sj+tnGVPaG0+39A1rwpPK2cVUqo9o3JWO7/w6X1YwomPX6CcHScPvVA5C+U9frhydpw89ELf0FDeK4crZ1fYR12qnI2Ke31ZH5Z1s+xvKGfZE1qbTzlb88r+tHKWPaG1+XxD17wqPK2cVUip9ozKWe38wqf3YQknPn6BcnacPPRC5SyU9/jhytlx8tALfUNDea8crpxdYR91qXI2Ku71ZX1Y1s2yv6GcZU9obT7lbM0r+9PKWfaE1ubzDV3zqvC0clYhpdozKme18wuf3oclnPj4BcrZcfLQC5WzUN7jhytnx8lDL/QNDeW9crhydoV91KXK2ai415f1YVk3y/6GcpY9obX5lLM1r+xPK2fZE1qbzzd0zavC08pZhZRqz6ic1c4vfHoflnDi4xcoZ8fJQy9UzkJ5jx+unB0nD73QNzSU98rhytkV9lGXKmej4l5f1odl3Sz7G8pZ9oTW5lPO1ryyP62cZU9obT7f0DWvCk8rZxVSqj2jclY7v/DpfVjCiY9foJwdJw+9UDkL5T1+uHJ2nDz0Qt/QUN4rhytnV9hHXaqcjYp7fVkflnWz7G8oZ9kTWptPOVvzyv60cpY9obX5fEPXvCo8rZxVSKn2jMpZ7fzCp/dhCSc+foFydpw89ELlLJT3+OHK2XHy0At9Q0N5rxyunF1hH3WpcjYq7vVlfVjWzbK/oZxlT2htPuVszSv708pZ9oTW5vMNXfOq8LRyViGl2jMqZ7XzC5/ehyWc+PgFytlx8tALlbNQ3uOHK2fHyUMv9A0N5b1yuHJ2hX3UpcrZqLjXl/VhWTfL/oZylj2htfmUszWv7E8rZ9kTWpvPN3TNq8LTylmFlGrPqJzVzi98eh+WcOLjFyhnx8lDL1TOQnmPH66cHScPvdA3NJT3yuHK2RX2UZcqZ6PiXl/Wh2XdLPsbyln2hNbmU87WvLI/rZxlT2htPt/QNa8KTytnFVKqPaNyVju/8Ol9WMKJj1+gnB0nD71QOQvlPX64cnacPPRC39BQ3iuHK2dX2EddqpyNint9WR+WdbPsbyhn2RNam085W/PK/rRylj2htfl8Q9e8KjytnFVIqfaMylnt/MKn92EJJz5+gXJ2nDz0QuUslPf44crZcfLQC31DQ3mvHK6cXWEfdalyNiru9WV9WNbNsr+hnGVPaG0+5WzNK/vTyln2hNbm8w1d86rwtHJWIaXaMypntfMLn96HJZz4+AXK2XHy0AuVs1De44crZ8fJQy/0DQ3lvXK4cnaFfdSlytmouNeX9WFZN8v+hnKWPaG1+ZSzNa/sTytn2RNam883dM2rwtPKWYWUas+onNXOL3x6H5Zw4uMXKGfHyUMvVM5CeY8frpwdJw+90Dc0lPfK4crZFfZRlypno+JeX9aHZd0s+xvKWfaE1uZTzta8sj+tnGVPaG0+39A1rwpPK2cVUqo9o3JWO7/w6X1YwomPX6CcHScPvVA5C+U9frhydpw89ELf0FDeK4crZ1fYR12qnI2Ke31ZH5Z1s+xvKGfZE1qbTzlb88r+tHKWPaG1+XxD17wqPK2cVUip9ozKWe38wqf3YQknPn6BcnacPPRC5SyU9/jhytlx8tALfUNDea8crpxdYR91qXI2Ku71ZX1Y1s2yv6GcZU9obT7lbM0r+9PKWfaE1ubzDV3zqvC0clYhpdozKme18wuf3oclnPj4BcrZcfLQC5WzUN7jhytnx8lDL/QNDeW9crhydoV91KXK2ai415f1YVk3y/6GcpY9obX5lLM1r+xPK2fZE1qbzzd0zavC08pZhZRqz6ic1c4vfHoflnDi4xcoZ8fJQy9UzkJ5jx+unB0nD73QNzSU98rhytkV9lGXKmej4l5f1odl3Sz7G8pZ9oTW5lPO1ryyP62cZU9obT7f0DWvCk8rZxVSqj2jclY7v/DpfVjCiY9foJwdJw+9UDkL5T1+uHJ2nDz0Qt/QUN4rhytnV9hHXaqcjYp7fVkflnWz7G8oZ9kTWptPOVvzyv60cpY9obX5fEPXvCo8rZxVSKn2jMpZ7fzCp/dhCSc+foFydpw89ELlLJT3+OHK2XHy0At9Q0N5rxyunF1hH3WpcjYq7vVlfVjWzbK/oZxlT2htPuVszSv708pZ9oTW5vMNXfOq8LRyViGl2jMqZ7XzC5/ehyWc+PgFytlx8tALlbNQ3uOHK2fHyUMv9A0N5b1yuHJ2hX3UpcrZqLjXl/VhWTfL/oZylj2htfmUszWv7E8rZ9kTWpvPN3TNq8LTylmFlGrPqJzVzi98eh+WcOLjFyhnx8lDL1TOQnmPH66cHScPvdA3NJT3yuHK2RX2UZcqZ6PiXl/Wh2XdLPsbyln2hNbmU87WvLI/rZxlT2htPt/QNa8KTytnFVKqPaNyVju/8Ol9WMKJj1+gnB0nD71QOQvlPX64cnacPPRC39BQ3iuHK2dX2EddqpyNint9WR+WdbPsbyhn2RNam085W/PK/rRylj2htfl8Q9e8KjytnFVIqfaMylnt/MKn92EJJz5+gXJ2nDz0QuUslPf44crZcfLQC31DQ3mvHK6cXWEfdalyNiru9WV9WNbNsr+hnGVPaG0+5WzNK/vTyln2hNbm8w1d86rwtHJWIaXaMypntfMLn96HJZz4+AXK2XHy0AuVs1De44crZ8fJQy/0DQ3lvXK4cnaFfdSlytmouNeX9WFZN8v+hnKWPaG1+ZSzNa/sTytn2RNam883dM2rwtPKWYWUas+onNXOL3x6H5Zw4uMXKGfHyUMvVM5CeY8frpwdJw+90Dc0lPfK4crZFfZRlypno+JeX9aHZd0s+xvKWfaE1uZTzta8sj+tnGVPaG0+39A1rwpPK2cVUqo9o3JWO7/w6X1YwomPX6CcHScPvVA5C+U9frhydpw89ELf0FDeK4crZ1fYR12qnI2Ke31ZH5Z1s+xvKGfZE1qbTzlb88r+tHKWPaG1+XxD17wqPK2cVUip9ozKWe38wqf3YQknPn6BcnacPPRC5SyU9/jhytlx8tALfUNDea8crpxdYR91qXI2Ku71ZX1Y1s2yv6GcZU9obT7lbM0r+9PKWfaE1ubzDV3zqvC0clYhpdozKme18wuf3oclnPj4BcrZcfLQC5WzUN7jhytnx8lDL/QNDeW9crhydoV91KXK2ai415f1YVk3y/6GcpY9obX5lLM1r+xPK2fZE1qbzzd0zavC08pZhZRqz6ic1c4vfHoflnDi4xcoZ8fJQy9UzkJ5jx+unB0nD73QNzSU98rhytkV9lGXKmej4l5f1odl3Sz7G8pZ9oTW5lPO1ryyP62cZU9obT7f0DWvCk8rZxVSqj2jclY7v/DpfVjCiY9foJwdJw+9UDkL5T1+uHJ2nDz0Qt/QUN4rhytnV9hHXaqcjYp7fVkflnWz7G8oZ9kTWptPOVvzyv60cpY9obX5fEPXvCo8rZxVSKn2jMpZ7fzCp/dhCSc+foFydpw89ELlLJT3+OHK2XHy0At9Q0N5rxyunF1hH3WpcjYq7vVlfVjWzbK/oZxlT2htPuVszSv708pZ9oTW5vMNXfOq8LRyViGl2jMqZ7XzC5/ehyWc+PgFytlx8tALlbNQ3uOHK2fHyUMv9A0N5b1yuHJ2hX3UpcrZqLjXl/VhWTfL/oZylj2htfmUszWv7E8rZ9kTWpvPN3TNq8LTylmFlGrPqJzVzi98eh+WcOLjFyhnx8lDL1TOQnmPH66cHScPvdA3NJT3yuHK2RX2UZcqZ6PiXl/Wh2XdLPsbyln2hNbmU87WvLI/rZxlT2htPt/QNa8KTytnFVKqPaNyVju/8Ol9WMKJj1+gnB0nD71QOQvlPX64cnacPPRC39BQ3iuHK2dX2EddqpyNint9WR+WdbPsbyhn2RNam085W/PK/rRylj2htfl8Q9e8KjytnFVIqfaMylnt/MKn92EJJz5+gXJ2nDz0QuUslPf44crZcfLQC31DQ3mvHK6cXWEfdalyNiru9WV9WNbNsr+hnGVPaG0+5WzNK/vTyln2hNbm8w1d86rwtHJWIaXaMypntfMLn96HJZz4+AXK2XHy0AuVs1De44crZ8fJQy/0DQ3lvXK4cnaFfdSlytmouNeX9WFZN8v+hnKWPaG1+ZSzNa/sTytn2RNam883dM2rwtPKWYWUas+onNXOL3x6H5Zw4uMXKGfHyUMvVM5CeY8frpwdJw+90Dc0lPfK4crZFfZRlypno+JeX9aHZd0s+xvKWfZtnM4nAAAgAElEQVSE1uZTzta8sj+tnGVPaG0+39A1rwpPK2cVUqo9o3JWO7/w6X1YwomPX6CcHScPvVA5C+U9frhydpw89ELf0FDeK4crZ1fYR12qnI2Ke31ZH5Z1s+xvKGfZE1qbTzlb88r+tHKWPaG1+XxD17wqPK2cVUip9ozKWe38wqf3YQknPn6BcnacPPRC5SyU9/jhytlx8tALfUNDea8crpxdYR91qXI2Ku71ZX1Y1s2yv6GcZU9obT7lbM0r+9PKWfaE1ubzDV3zqvC0clYhpdozKme18wuf3oclnPj4BcrZcfLQC5WzUN7jhytnx8lDL/QNDeW9crhydoV91KXK2ai415f1YVk3y/6GcpY9obX5lLM1r+xPK2fZE1qbzzd0zavC08pZhZRqz6ic1c4vfHoflnDi4xcoZ8fJQy9UzkJ5jx+unB0nD73QNzSU98rhytkV9lGXKmej4l5f1odl3Sz7G8pZ9oTW5lPO1ryyP62cZU9obT7f0DWvCk8rZxVSqj3j6+XsD7/7fW0R0xMgQIAAgUsCytkl+KBrf/vtt6CTHXtL4Nf//p+3rnZvhMCf/1XEqf+lM5Wz/xKflwkQIECAwHsCytl7lhlOUs4ypPDuDMrZu57XT1POrkdgAAIECBAgkFZAOUsbzdZgytkWW+qXlLPU8awPp5ytm3mDAAECBAhMEVDOeiWtnPXK87ONctYsU+WsWaDWIUCAAAECLwooZy9iJjhKOUsQwssjKGcvg94+Tjm7nYD7CRAgQIBAXgHlLG82O5MpZztqud9RznLnszydcrZM5gUCBAgQIDBGQDnrFbVy1ivPzzbKWbNMlbNmgVqHAAECBAi8KKCcvYiZ4CjlLEEIL4+gnL0Mevs45ex2Au4nQIAAAQJ5BZSzvNnsTKac7ajlfkc5y53P8nTK2TKZFwgQIECAwBgB5axX1MpZrzw/2yhnzTJVzpoFah0CBAgQIPCigHL2ImaCo5SzBCG8PIJy9jLo7eOUs9sJuJ8AAQIECOQVUM7yZrMzmXK2o5b7HeUsdz7L0ylny2ReIECAAAECYwSUs15RK2e98vxso5w1y1Q5axaodQgQIECAwIsCytmLmAmOUs4ShPDyCMrZy6C3j1PObifgfgIECBAgkFdAOcubzc5kytmOWu53lLPc+SxPp5wtk3mBAAECBAiMEVDOekWtnPXK87ONctYsU+WsWaDWIUCAAAECLwooZy9iJjhKOUsQwssjKGcvg94+Tjm7nYD7CRAgQIBAXgHlLG82O5MpZztqud9RznLnszydcrZM5gUCBAgQIDBGQDnrFbVy1ivPzzbKWbNMlbNmgVqHAAECBAi8KKCcvYiZ4CjlLEEIL4+gnL0Mevs45ex2Au4nQIAAAQJ5BZSzvNnsTKac7ajlfkc5y53P8nTK2TKZFwgQIECAwBgB5axX1MpZrzw/2yhnzTJVzpoFah0CBAgQIPCigHL2ImaCo5SzBCG8PIJy9jLo7eOUs9sJuJ8AAQIECOQVUM7yZrMzmXK2o5b7HeUsdz7L0ylny2ReIECAAAECYwSUs15RK2e98vxso5w1y1Q5axaodQgQIECAwIsCytmLmAmOUs4ShPDyCMrZy6C3j1PObifgfgIECBAgkFdAOcubzc5kytmOWu53lLPc+SxPp5wtk3mBAAECBAiMEVDOekWtnPXK87ONctYsU+WsWaDWIUCAAAECLwooZy9iJjhKOUsQwssjKGcvg94+Tjm7nYD7CRAgQIBAXgHlLG82O5MpZztqud9RznLnszydcrZM5gUCBAgQIDBGQDnrFbVy1ivPzzbKWbNMlbNmgVqHAAECBAi8KKCcvYiZ4CjlLEEIL4+gnL0Mevs45ex2Au4nQIAAAQJ5BZSzvNnsTKac7ajlfkc5y53P8nTK2TKZFwgQIECAwBgB5axX1MpZrzw/2yhnzTJVzpoFah0CBAgQIPCigHL2ImaCo5SzBCG8PIJy9jLo7eOUs9sJuJ8AAQIECOQVUM7yZrMzmXK2o5b7HeUsdz7L0ylny2ReIECAAAECYwSUs15RK2e98vxso5w1y1Q5axaodQgQIECAwIsCytmLmAmOUs4ShPDyCMrZy6C3j1PObifgfgIECBAgkFdAOcubzc5kytmOWu53lLPc+SxPp5wtk3mBAAECBAiMEVDOekWtnPXK87ONctYsU+WsWaDWIUCAAAECLwooZy9iJjhKOUsQwssjKGcvg94+Tjm7nYD7CRAgQIBAXgHlLG82O5MpZztqud9RznLnszydcrZM5gUCBAgQIDBGQDnrFbVy1ivPzzbKWbNMlbNmgVqHAAECBAi8KKCcvYiZ4CjlLEEIL4+gnL0Mevs45ex2Au4nQIAAAQJ5BZSzvNnsTKac7ajlfkc5y53P8nTK2TKZFwgQIECAwBgB5axX1MpZrzw/2yhnzTJVzpoFah0CBAgQIPCigHL2ImaCo5SzBCG8PIJy9jLo7eOUs9sJuJ8AAQIECOQVUM7yZrMzmXK2o5b7HeUsdz7L0ylny2ReIECAAAECYwSUs15RK2e98vxso5w1y1Q5axaodQgQIECAwIsCytmLmAmOUs4ShPDyCMrZy6C3j1PObifgfgIECBAgkFdAOcubzc5kytmOWu53lLPc+SxPp5wtk3mBAAECBAiMEVDOekWtnPXK87ONctYsU+WsWaDWIUCAAAECLwooZy9iJjhKOUsQwssjKGcvg94+Tjm7nYD7CRAgQIBAXgHlLG82O5MpZztqud9RznLnszydcrZM5gUCBAgQIDBGQDnrFbVy1ivPzzbKWbNMlbNmgVqHAAECBAi8KKCcvYiZ4CjlLEEIL4+gnL0Mevs45ex2Au4nQIAAAQJ5BZSzvNnsTKac7ajlfkc5y53P8nTK2TKZFwgQIECAwBgB5axX1MpZrzw/2yhnzTJVzpoFah0CBAgQIPCigHL2ImaCo5SzBCG8PIJy9jLo7eOUs9sJuJ8AAQIECOQVUM7yZrMzmXK2o5b7HeUsdz7L0ylny2ReIECAAAECYwSUs15RK2e98vxso5w1y1Q5axaodQgQIECAwIsCytmLmAmOUs4ShPDyCMrZy6C3j1PObifgfgIECBAgkFdAOcubzc5kytmOWu53lLPc+SxPp5wtk3mBAAECBAiMEVDOekWtnPXK87ONctYsU+WsWaDWIUCAAAECLwooZy9iJjhKOUsQwssjKGcvg94+Tjm7nYD7CRAgQIBAXgHlLG82O5MpZztqud9RznLnszydcrZM5gUCBAgQIDBGQDnrFbVy1ivPzzbKWbNMlbNmgVqHAAECBAi8KKCcvYiZ4CjlLEEIL4+gnL0Mevs45ex2Au4nQIAAAQJ5BZSzvNnsTKac7ajlfkc5y53P8nTK2TKZFwgQIECAwBgB5axX1MpZrzw/2yhnzTJVzpoFah0CBAgQIPCigHL2ImaCo5SzBCG8PIJy9jLo7eOUs9sJuJ8AAQIECOQVUM7yZrMzmXK2o5b7HeUsdz7L0ylny2ReIECAAAECYwSUs15RK2e98vxso5w1y1Q5axaodQgQIECAwIsCytmLmAmOUs4ShPDyCMrZy6C3j1PObifgfgIECBAgkFdAOcubzc5kytmOWu53lLPc+SxPp5wtk3mBAAECBAiMEVDOekWtnPXK87ONctYsU+WsWaDWIUCAAAECLwooZy9iJjhKOUsQwssjKGcvg94+Tjm7nYD7CRAgQIBAXgHlLG82O5MpZztqud9RznLnszydcrZM5gUCBAgQIDBGQDnrFbVy1ivPzzbKWbNMlbNmgVqHAAECBAi8KKCcvYiZ4CjlLEEIL4+gnL0Mevs45ex2Au4nQIAAAQJ5BZSzvNnsTKac7ajlfkc5y53P8nTK2TKZFwgQIECAwBgB5axX1MpZrzw/2yhnzTJVzpoFah0CBAgQIPCigHL2ImaCo5SzBCG8PIJy9jLo7eOUs9sJuJ8AAQIECOQVUM7yZrMzmXK2o5b7HeUsdz7L0ylny2ReIECAAAECYwSUs15RK2e98vxso5w1y1Q5axaodQgQIECAwIsCytmLmAmOUs4ShPDyCMrZy6C3j1PObifgfgIECBAgkFdAOcubzc5kytmOWu53lLPc+SxPp5wtk3mBAAECBAiMEVDOekWtnPXK87ONctYsU+WsWaDWIUCAAAECLwooZy9iJjhKOUsQwssjKGcvg94+Tjm7nYD7CRAgQIBAXgHlLG82O5MpZztqud9RznLnszydcrZM5gUCBAgQIDBGQDnrFbVy1ivPzzbKWbNMlbNmgVqHAAECBAi8KKCcvYiZ4CjlLEEIL4+gnL0Mevs45ex2Au4nQIAAAQJ5BZSzvNnsTKac7ajlfkc5y53P8nTK2TKZFwgQIECAwBgB5axX1MpZrzw/2yhnzTJVzpoFah0CBAgQIPCigHL2ImaCo5SzBCG8PIJy9jLo7eOUs9sJuJ8AAQIECOQVUM7yZrMzmXK2o5b7HeUsdz7L0ylny2ReIECAAAECYwSUs15RK2e98vxso5w1y1Q5axaodQgQIECAwIsCytmLmAmOUs4ShPDyCMrZy6C3j1PObifgfgIECBAgkFdAOcubzc5kytmOWu53lLPc+SxPp5wtk3mBAAECBAiMEVDOekWtnPXK87ONctYsU+WsWaDWIUCAAAECLwooZy9iJjhKOUsQwssjKGcvg94+Tjm7nYD7CRAgQIBAXgHlLG82O5MpZztqud9RznLnszydcrZM5gUCBAgQIDBGQDnrFbVy1ivPzzbKWbNMlbNmgVqHAAECBAi8KKCcvYiZ4CjlLEEIL4+gnL0Mevs45ex2Au4nQIAAAQJ5BZSzvNnsTKac7ajlfkc5y53P8nTK2TKZFwgQIECAwBgB5axX1MpZrzw/2yhnzTJVzpoFah0CBAgQIPCigHL2ImaCo5SzBCG8PIJy9jLo7eOUs9sJuJ8AAQIECOQVUM7yZrMzmXK2o5b7HeUsdz7L0ylny2ReIECAAAECYwSUs15RK2e98vxso5w1y1Q5axaodQgQIECAwIsCytmLmAmOUs4ShPDyCMrZy6C3j1PObifgfgIECBAgkFdAOcubzc5kytmOWu53lLPc+SxPp5wtk3mBAAECBAiMEVDOekWtnPXK87ONctYsU+WsWaDWIUCAAAECLwooZy9iJjhKOUsQwssjKGcvg94+Tjm7nYD7CRAgQIBAXgHlLG82O5MpZztqud9RznLnszydcrZM5gUCBAgQIDBGQDnrFbVy1ivPzzbKWbNMlbNmgVqHAAECBAi8KKCcvYiZ4CjlLEEIL4+gnL0Mevs45ex2Au5fFfizf/2n1Vc8n1zAhyV5QKvjJfywrK7geQIECBAgQODfBX779evXrzcx/vC73795nLMuCyhnlwMIuF45C0C9eaRydlPf3QQIECBA4FUB5exVzn6HKWf9MlXOmmWqnDUL1DoECBAgMFlAOZuc/oPdlbMHSMUeUc6KBfZtXOXsm5DfCRAgQIBAGQHlrExUdwZVzu64R96qnEXqXjhbObuA7koCBAgQIBAjoJzFuLY5VTlrE+XPIspZs0yVs2aBWocAAQIEJgsoZ5PTf7C7cvYAqdgjylmxwL6Nq5x9E/I7AQIECBAoI6CclYnqzqDK2R33yFuVs0jdC2crZxfQXUmAAAECBGIElLMY1zanKmdtovxZRDlrlqly1ixQ6xAgQIDAZAHlbHL6D3ZXzh4gFXtEOSsW2LdxlbNvQn4nQIAAAQJlBJSzMlHdGVQ5u+MeeatyFql74Wzl7AK6KwkQIECAQIyAchbj2uZU5axNlD+LKGfNMlXOmgVqHQIECBCYLKCcTU7/we7K2QOkYo8oZ8UC+zaucvZNyO8ECBAgQKCMgHJWJqo7gypnd9wjb1XOInUvnK2cXUB3JQECBAgQiBFQzmJc25yqnLWJ8mcR5axZpspZs0CtQ4AAAQKTBZSzyek/2F05e4BU7BHlrFhg38ZVzr4J+Z0AAQIECJQRUM7KRHVnUOXsjnvkrcpZpO6Fs5WzC+iuJECAAAECMQLKWYxrm1OVszZR/iyinDXLVDlrFqh1CBAgQGCygHI2Of0HuytnD5CKPaKcFQvs27jK2TchvxMgQIAAgTICylmZqO4MqpzdcY+8VTmL1L1wtnJ2Ad2VBAgQIEAgRkA5i3Ftc6py1ibKn0WUs2aZKmfNArUOAQIECEwWUM4mp/9gd+XsAVKxR5SzYoF9G1c5+ybkdwIECBAgUEZAOSsT1Z1BlbM77pG3KmeRuhfOVs4uoLuSAAECBAjECChnMa5tTlXO2kT5s4hy1ixT5axZoNYhQIAAgckCytnk9B/srpw9QCr2iHJWLLBv4ypn34T8ToAAAQIEyggoZ2WiujOocnbHPfJW5SxS98LZytkFdFcSIECAAIEYAeUsxrXNqcpZmyh/FlHOmmWqnDUL1DoECBAgMFlAOZuc/oPdlbMHSMUeUc6KBfZtXOXsm5DfCRAgQIBAGQHlrExUdwZVzu64R96qnEXqXjhbObuA7koCBAgQIBAjoJzFuLY5VTlrE+XPIspZs0yVs2aBWocAAQIEJgsoZ5PTf7C7cvYAqdgjylmxwL6Nq5x9E/I7AQIECBAoI6CclYnqzqDK2R33yFuVs0jdC2crZxfQXUmAAAECBGIElLMY1zanKmdtovxZRDlrlqly1ixQ6xAgQIDAZAHlbHL6D3ZXzh4gFXtEOSsW2LdxlbNvQn4nQIAAAQJlBJSzMlHdGVQ5u+MeeatyFql74Wzl7AK6KwkQIECAQIyAchbj2uZU5axNlD+LKGfNMlXOmgVqHQIECBCYLKCcTU7/we7K2QOkYo8oZ8UC+zaucvZNyO8ECBAgQKCMgHJWJqo7gypnd9wjb1XOInUvnK2cXUB3JQECBAgQiBFQzmJc25yqnLWJ8mcR5axZpspZs0CtQ4AAAQKTBZSzyek/2F05e4BU7BHlrFhg38ZVzr4J+Z0AAQIECJQRUM7KRHVnUOXsjnvkrcpZpO6Fs5WzC+iuJECAAAECMQLKWYxrm1OVszZR/iyinDXLVDlrFqh1CBAgQGCygHI2Of0HuytnD5CKPaKcFQvs27jK2TchvxMgQIAAgTICylmZqO4MqpzdcY+8VTmL1L1wtnJ2Ad2VBAgQIEAgRkA5i3Ftc6py1ibKn0WUs2aZKmfNArUOAQIECEwWUM4mp/9gd+XsAVKxR5SzYoF9G1c5+ybkdwIECBAgUEZAOSsT1Z1BlbM77pG3KmeRuhfOVs4uoLuSAAECBAjECChnMa5tTlXO2kT5s4hy1ixT5axZoNYhQIAAgckCytnk9B/srpw9QCr2iHJWLLBv4ypn34T8ToAAAQIEyggoZ2WiujOocnbHPfJW5SxS98LZytkFdFcSIECAAIEYAeUsxrXNqcpZmyh/FlHOmmWqnDUL1DoECBAgMFlAOZuc/oPdlbMHSMUeUc6KBfZtXOXsm5DfCRAgQIBAGQHlrExUdwZVzu64R96qnEXqXjhbObuA7koCBAgQIBAjoJzFuLY5VTlrE+XPIspZs0yVs2aBWocAAQIEJgsoZ5PTf7C7cvYAqdgjylmxwL6Nq5x9E/I7AQIECBAoI6CclYnqzqDK2R33yFuVs0jdC2crZxfQXUmAAAECBGIElLMY1zanKmdtovxZRDlrlqly1ixQ6xAgQIDAZAHlbHL6D3ZXzh4gFXtEOSsW2LdxlbNvQn4nQIAAAQJlBJSzMlHdGVQ5u+MeeatyFql74Wzl7AK6KwkQIECAQIyAchbj2uZU5axNlD+LKGfNMlXOmgVqHQIECBCYLKCcTU7/we7K2QOkYo8oZ8UC+zaucvZNyO8ECBAgQKCMgHJWJqo7gypnd9wjb1XOInUvnK2cXUB3JQECBAgQiBFQzmJc25yqnLWJ8mcR5axZpspZs0CtQ4AAAQKTBZSzyek/2F05e4BU7BHlrFhg38ZVzr4J+Z0AAQIECJQRUM7KRHVnUOXsjnvkrcpZpO6Fs5WzC+iuJECAAAECMQLKWYxrm1OVszZR/iyinDXLVDlrFqh1CBAgQGCygHI2Of0HuytnD5CKPaKcFQvs27jK2TchvxMgQIAAgTICylmZqO4MqpzdcY+8VTmL1L1wtnJ2Ad2VBAgQIEAgRkA5i3Ftc6py1ibKn0WUs2aZKmfNArUOAQIECEwWUM4mp/9gd+XsAVKxR5SzYoF9G1c5+ybkdwIECBAgUEZAOSsT1Z1BlbM77pG3KmeRuhfOVs4uoLuSAAECBAjECChnMa5tTlXO2kT5s4hy1ixT5axZoNYhQIAAgckCytnk9B/srpw9QCr2iHJWLLBv4ypn34T8ToAAAQIEyggoZ2WiujOocnbHPfJW5SxS98LZytkFdFcSIECAAIEYAeUsxrXNqcpZmyh/FlHOmmWqnDUL1DoECBAgMFlAOZuc/oPdlbMHSMUeUc6KBfZtXOXsm5DfCRAgQIBAGQHlrExUdwZVzu64R96qnEXqXjhbObuA7koCBAgQIBAjoJzFuLY5VTlrE+XPIspZs0yVs2aBWocAAQIEJgsoZ5PTf7C7cvYAqdgjylmxwL6Nq5x9E/I7AQIECBAoI6CclYnqzqDK2R33yFuVs0jdC2crZxfQXUmAAAECBGIElLMY1zanKmdtovxZRDlrlqly1ixQ6xAgQIDAZAHlbHL6D3ZXzh4gFXtEOSsW2LdxlbNvQn4nQIAAAQJlBJSzMlHdGVQ5u+MeeatyFql74Wzl7AK6KwkQIECAQIyAchbj2uZU5axNlD+LKGfNMlXOmgVqHQIECBCYLKCcTU7/we7K2QOkYo8oZ8UC+zaucvZNyO8ECBAgQKCMgHJWJqo7gypnd9wjb1XOInUvnK2cXUB3JQECBAgQiBFQzmJc25yqnLWJ8mcR5axZpspZs0CtQ4AAAQKTBZSzyek/2F05e4BU7BHlrFhg38ZVzr4J+Z0AAQIECJQRUM7KRHVnUOXsjnvkrcpZpO6Fs5WzC+iuJECAAAECMQLKWYxrm1OVszZR/iyinDXLVDlrFqh1CBAgQGCygHI2Of0HuytnD5CKPaKcFQvs27jK2TchvxMgQIAAgTICylmZqO4MqpzdcY+8VTmL1L1wtnJ2Ad2VBAgQIEAgRkA5i3Ftc6py1ibKn0WUs2aZKmfNArUOAQIECEwWUM4mp/9gd+XsAVKxR5SzYoF9G1c5+ybkdwIECBAgUEZAOSsT1Z1BlbM77pG3KmeRuhfOVs4uoLuSAAECBAjECChnMa5tTlXO2kT5s4hy1ixT5axZoNYhQIAAgckCytnk9B/srpw9QCr2iHJWLLBv4ypn34T8ToAAAQIEyggoZ2WiujOocnbHPfJW5SxS98LZytkFdFcSIECAAIEYAeUsxrXNqcpZmyh/FlHOmmWqnDUL1DoECBAgMFlAOZuc/oPdlbMHSMUeUc6KBfZtXOXsm5DfCRAgQIBAGQHlrExUdwZVzu64R96qnEXqXjhbObuA7koCBAgQIBAjoJzFuLY5VTlrE+XPIspZs0yVs2aBWocAAQIEJgsoZ5PTf7C7cvYAqdgjylmxwL6Nq5x9E/I7AQIECBAoI6CclYnqzqDK2R33yFuVs0jdC2crZxfQXUmAAAECBGIElLMY1zanKmdtovxZRDlrlqly1ixQ6xAgQIDAZAHlbHL6D3ZXzh4gFXtEOSsW2LdxlbNvQn4nQIAAAQJlBJSzMlHdGVQ5u+MeeatyFql74Wzl7AK6KwkQIECAQIyAchbj2uZU5axNlD+LKGfNMlXOmgVqHQIECBCYLKCcTU7/we7K2QOkYo8oZ8UC+zaucvZNyO8ECBAgQKCMgHJWJqo7gypnd9wjb1XOInUvnK2cXUB3JQECBAgQiBFQzmJc25yqnLWJ8mcR5axZpspZs0CtQ4AAAQKTBZSzyek/2F05e4BU7BHlrFhg38ZVzr4J+Z0AAQIECJQRUM7KRHVnUOXsjnvkrcpZpO6Fs5WzC+iuJECAAAECMQLKWYxrm1OVszZR/iyinDXLVDlrFqh1CBAgQGCygHI2Of0HuytnD5CKPaKcFQvs27jK2TchvxMgQIAAgTICr5ezMpsb9JHAP/z93z16zkN1BP7yr/+2zrAmJUCAAAECBAgMElDOBoW9s6pytqOW+x3lLHc+piNAgAABAgTmCihnc7N/tLly9oip1EPKWam4DEuAAAECBAgMElDOBoW9s6pytqOW+x3lLHc+piNAgAABAgTmCihnc7N/tLly9oip1EPKWam4DEuAAAECBAgMElDOBoW9s6pytqOW+x3lLHc+piNAgAABAgTmCihnc7N/tLly9oip1EPKWam4DEuAAAECBAgMElDOBoW9s6pytqOW+x3lLHc+piNAgAABAgTmCihnc7N/tLly9oip1EPKWam4DEuAAAECBAgMElDOBoW9s6pytqOW+x3lLHc+piNAgAABAgTmCihnc7N/tLly9oip1EPKWam4DEuAAAECBAgMElDOBoW9s6pytqOW+x3lLHc+piNAgAABAgTmCihnc7N/tLly9oip1EPKWam4DEuAAAECBAgMElDOBoW9s6pytqOW+x3lLHc+piNAgAABAgTmCihnc7N/tLly9oip1EPKWam4DEuAAAECBAgMElDOBoW9s6pytqOW+x3lLHc+piNAgAABAgTmCihnc7N/tLly9oip1EPKWam4DEuAAAECBAgMElDOBoW9s6pytqOW+x3lLHc+piNAgAABAgTmCihnc7N/tLly9oip1EPKWam4DEuAAAECBAgMElDOBoW9s6pytqOW+x3lLHc+piNAgAABAgTmCihnc7N/tLly9oip1EPKWam4DEuAAAECBAgMElDOBoW9s6pytqOW+x3lLHc+piNAgAABAgTmCihnc7N/tLly9oip1EPKWam4DEuAAAECBAgMElDOBoW9s6pytqOW+x3lLHc+ptcXE5sAAArxSURBVCNAgAABAgTmCihnc7N/tLly9oip1EPKWam4DEuAAAECBAgMElDOBoW9s6pytqOW+x3lLHc+piNAgAABAgTmCihnc7N/tLly9oip1EPKWam4DEuAAAECBAgMElDOBoW9s6pytqOW+x3lLHc+piNAgAABAgTmCihnc7N/tLly9oip1EPKWam4DEuAAAECBAgMElDOBoW9s6pytqOW+x3lLHc+piNAgAABAgTmCihnc7N/tLly9oip1EPKWam4DEuAAAECBAgMElDOBoW9s6pytqOW+x3lLHc+piNAgAABAgTmCihnc7N/tLly9oip1EPKWam4DEuAAAECBAgMElDOBoW9s6pytqOW+x3lLHc+piNAgAABAgTmCihnc7N/tLly9oip1EPKWam4DEuAAAECBAgMElDOBoW9s6pytqOW+x3lLHc+piNAgAABAgTmCihnc7N/tLly9oip1EPKWam4DEuAAAECBAgMElDOBoW9s6pytqOW+x3lLHc+piNAgAABAgTmCihnc7N/tLly9oip1EPKWam4DEuAAAECBAgMElDOBoW9s6pytqOW+x3lLHc+piNAgAABAgTmCihnc7N/tLly9oip1EPKWam4DEuAAAECBAgMElDOBoW9s6pytqOW+x3lLHc+piNAgAABAgTmCihnc7N/tLly9oip1EPKWam4DEuAAAECBAgMElDOBoW9s6pytqOW+x3lLHc+piNAgAABAgTmCihnc7N/tLly9oip1EPKWam4DEuAAAECBAgMElDOBoW9s6pytqOW+x3lLHc+piNAgAABAgTmCihnc7N/tLly9oip1EPKWam4DEuAAAECBAgMElDOBoW9s6pytqOW+x3lLHc+piNAgAABAgTmCihnc7N/tLly9oip1EPKWam4DEuAAAECBAgMElDOBoW9s6pytqOW+x3lLHc+piNAgAABAgTmCihnc7N/tLly9oip1EPKWam4DEuAAAECBAgMElDOBoW9s6pytqOW+x3lLHc+piNAgAABAgTmCihnc7N/tLly9oip1EPKWam4DEuAAAECBAgMElDOBoW9s6pytqOW+x3lLHc+piNAgAABAgTmCihnc7N/tLly9oip1EPKWam4DEuAAAECBAgMElDOBoW9s6pytqOW+x3lLHc+piNAgAABAgTmCihnc7N/tLly9oip1EPKWam4DEuAAAECBAgMElDOBoW9s6pytqOW+x3lLHc+piNAgAABAgTmCihnc7N/tLly9oip1EPKWam4DEuAAAECBAgMElDOBoW9s6pytqOW+x3lLHc+piNAgAABAgTmCihnc7N/tLly9oip1EPKWam4DEuAAAECBAgMElDOBoW9s6pytqOW+x3lLHc+piNAgAABAgTmCihnc7N/tLly9oip1EPKWam4DEuAAAECBAgMElDOBoW9s6pytqOW+x3lLHc+piNAgAABAgTmCihnc7N/tLly9oip1EPKWam4DEuAAAECBAgMElDOBoW9s6pytqOW+x3lLHc+piNAgAABAgTmCihnc7N/tLly9oip1EPKWam4DEuAAAECBAgMElDOBoW9s6pytqOW+x3lLHc+piNAgAABAgTmCihnc7N/tLly9oip1EPKWam4DEuAAAECBAgMElDOBoW9s6pytqOW+x3lLHc+piNAgAABAgTmCihnc7N/tLly9oip1EPKWam4DEuAAAECBAgMElDOBoW9s6pytqOW+x3lLHc+piNAgAABAgTmCihnc7N/tLly9oip1EPKWam4DEuAAAECBAgMElDOBoW9s6pytqOW+x3lLHc+piNAgAABAgTmCihnc7N/tLly9oip1EPKWam4DEuAAAECBAgMElDOBoW9s6pytqOW+x3lLHc+piNAgAABAgTmCihnc7N/tLly9oip1EPKWam4DEuAAAECBAgMElDOBoW9s6pytqOW+x3lLHc+piNAgAABAgTmCihnc7N/tLly9oip1EPKWam4DEuAAAECBAgMElDOBoW9s6pytqOW+x3lLHc+piNAgAABAgTmCihnc7N/tLly9oip1EPKWam4DEuAAAECBAgMElDOBoW9s6pytqOW+x3lLHc+piNAgAABAgTmCihnc7N/tLly9oip1EPKWam4DEuAAAECBAgMElDOBoW9s6pytqOW+x3lLHc+piNAgAABAgTmCihnc7N/tLly9oip1EPKWam4DEuAAAECBAgMElDOBoW9s6pytqOW+x3lLHc+piNAgAABAgTmCihnc7N/tLly9oip1EPKWam4DEuAAAECBAgMElDOBoW9s6pytqOW+x3lLHc+piNAgAABAgTmCihnc7N/tLly9oip1EPKWam4DEuAAAECBAgMElDOBoW9s6pytqOW+x3lLHc+piNAgAABAgTmCihnc7N/tLly9oip1EPKWam4DEuAAAECBAgMElDOBoW9s6pytqOW+x3lLHc+piNAgAABAgTmCihnc7N/tLly9oip1EPKWam4DEuAAAECBAgMElDOBoW9s6pytqOW+x3lLHc+piNAgAABAgTmCihnc7N/tLly9oip1EPKWam4DEuAAAECBAgMElDOBoW9s6pytqOW+x3lLHc+piNAgAABAgTmCihnc7N/tLly9oip1EPKWam4DEuAAAECBAgMElDOBoW9s6pytqOW+x3lLHc+piNAgAABAgTmCihnc7N/tLly9oip1EPKWam4DEuAAAECBAgMElDOBoW9s6pytqOW+x3lLHc+piNAgAABAgTmCihnc7N/tLly9oip1EPKWam4DEuAAAECBAgMElDOBoW9s6pytqOW+x3lLHc+piNAgAABAgTmCihnc7N/tLly9oip1EPKWam4DEuAAAECBAgMElDOBoW9s6pytqOW+x3lLHc+piNAgAABAgTmCihnc7N/tLly9oip1EPKWam4DEuAAAECBAgMElDOBoW9s6pytqOW+x3lLHc+piNAgAABAgTmCihnc7N/tLly9oip1EPKWam4DEuAAAECBAgMElDOBoW9s6pytqOW+x3lLHc+piNAgAABAgTmCihnc7N/tLly9oip1EPKWam4DEuAAAECBAgMElDOBoW9s6pytqOW+x3lLHc+piNAgAABAgTmCihnc7N/tLly9oip1EPKWam4DEuAAAECBAgMElDOBoW9s6pytqOW+x3lLHc+piNAgAABAgTmCihnc7N/tLly9oip1EPKWam4DEuAAAECBAgMElDOBoW9s6pytqOW+x3lLHc+piNAgAABAgTmCihnc7N/tLly9oip1EPKWam4DEuAAAECBAgMElDOBoW9s6pytqOW+x3lLHc+piNAgAABAgTmCihnc7O3OQECBAgQIECAAAECiQSUs0RhGIUAAQIECBAgQIAAgbkCytnc7G1OgAABAgQIECBAgEAiAeUsURhGIUCAAAECBAgQIEBgroByNjd7mxMgQIAAAQIECBAgkEhAOUsUhlEIECBAgAABAgQIEJgroJzNzd7mBAgQIECAAAECBAgkElDOEoVhFAIECBAgQIAAAQIE5gooZ3OztzkBAgQIECBAgAABAokElLNEYRiFAAECBAgQIECAAIG5AsrZ3OxtToAAAQIECBAgQIBAIgHlLFEYRiFAgAABAgQIECBAYK6AcjY3e5sTIECAAAECBAgQIJBIQDlLFIZRCBAgQIAAAQIECBCYK6Cczc3e5gQIECBAgAABAgQIJBJQzhKFYRQCBAgQIECAAAECBOYK/BtW7o4rXe9VYAAAAABJRU5ErkJggg==;movable=0;resizable=0;rotatable=0;deletable=0;editable=0;locked=1;connectable=0;" parent="1" vertex="1">
          <mxGeometry y="30" width="871" height="608" as="geometry" />
        </mxCell>
        <mxCell id="-iSKdlwbcoZejbdQZmy2-7" value="" style="endArrow=classic;html=1;rounded=0;fillColor=#dae8fc;strokeColor=#6c8ebf;strokeWidth=5;" parent="1" edge="1">
          <mxGeometry width="50" height="50" relative="1" as="geometry">
            <mxPoint x="430" y="330" as="sourcePoint" />
            <mxPoint x="660" y="100" as="targetPoint" />
          </mxGeometry>
        </mxCell>
        <mxCell id="-iSKdlwbcoZejbdQZmy2-9" value="" style="endArrow=classic;html=1;rounded=0;fillColor=#dae8fc;strokeColor=#6c8ebf;strokeWidth=5;" parent="1" edge="1">
          <mxGeometry width="50" height="50" relative="1" as="geometry">
            <mxPoint x="80" y="330" as="sourcePoint" />
            <mxPoint x="430" y="330" as="targetPoint" />
          </mxGeometry>
        </mxCell>
        <mxCell id="-iSKdlwbcoZejbdQZmy2-10" value="" style="endArrow=classic;html=1;rounded=0;fillColor=#dae8fc;strokeColor=#6c8ebf;strokeWidth=5;" parent="1" edge="1">
          <mxGeometry width="50" height="50" relative="1" as="geometry">
            <mxPoint x="81" y="480" as="sourcePoint" />
            <mxPoint x="81" y="330" as="targetPoint" />
          </mxGeometry>
        </mxCell>
        <mxCell id="-iSKdlwbcoZejbdQZmy2-5" value="START" style="text;html=1;strokeColor=none;fillColor=none;align=center;verticalAlign=middle;whiteSpace=wrap;rounded=0;fontColor=#FFFFFF;fontSize=19;" parent="1" vertex="1">
          <mxGeometry x="50" y="440" width="60" height="30" as="geometry" />
        </mxCell>
        <mxCell id="-iSKdlwbcoZejbdQZmy2-11" value="" style="endArrow=classic;html=1;rounded=0;fillColor=#dae8fc;strokeColor=#6c8ebf;strokeWidth=5;" parent="1" edge="1">
          <mxGeometry width="50" height="50" relative="1" as="geometry">
            <mxPoint x="660" y="100" as="sourcePoint" />
            <mxPoint x="780" y="100" as="targetPoint" />
          </mxGeometry>
        </mxCell>
        <mxCell id="-iSKdlwbcoZejbdQZmy2-6" value="END" style="text;html=1;strokeColor=none;fillColor=none;align=center;verticalAlign=middle;whiteSpace=wrap;rounded=0;fontColor=#FFFFFF;fontSize=19;" parent="1" vertex="1">
          <mxGeometry x="750" y="50" width="60" height="30" as="geometry" />
        </mxCell>
        <mxCell id="-iSKdlwbcoZejbdQZmy2-12" value="#DETOUR_1" style="text;html=1;strokeColor=none;fillColor=none;align=center;verticalAlign=middle;whiteSpace=wrap;rounded=0;fontColor=#FFFFFF;fontSize=19;" parent="1" vertex="1">
          <mxGeometry x="50" y="280" width="60" height="30" as="geometry" />
        </mxCell>
        <mxCell id="-iSKdlwbcoZejbdQZmy2-13" value="#DETOUR_2" style="text;html=1;strokeColor=none;fillColor=none;align=center;verticalAlign=middle;whiteSpace=wrap;rounded=0;fontColor=#FFFFFF;fontSize=19;" parent="1" vertex="1">
          <mxGeometry x="399" y="358" width="60" height="30" as="geometry" />
        </mxCell>
        <mxCell id="-iSKdlwbcoZejbdQZmy2-14" value="" style="endArrow=classic;html=1;rounded=0;fillColor=#fff2cc;strokeColor=#d6b656;strokeWidth=4;" parent="1" edge="1">
          <mxGeometry width="50" height="50" relative="1" as="geometry">
            <mxPoint x="310" y="330" as="sourcePoint" />
            <mxPoint x="420" y="220" as="targetPoint" />
          </mxGeometry>
        </mxCell>
        <mxCell id="-iSKdlwbcoZejbdQZmy2-15" value="@SomeBottle" style="text;html=1;strokeColor=none;fillColor=none;align=center;verticalAlign=middle;whiteSpace=wrap;rounded=0;textOpacity=40;" parent="1" vertex="1">
          <mxGeometry x="800" y="608" width="60" height="30" as="geometry" />
        </mxCell>
        <mxCell id="-iSKdlwbcoZejbdQZmy2-16" value="" style="endArrow=classic;html=1;rounded=0;fillColor=#fff2cc;strokeColor=#d6b656;strokeWidth=4;" parent="1" edge="1">
          <mxGeometry width="50" height="50" relative="1" as="geometry">
            <mxPoint x="310" y="327" as="sourcePoint" />
            <mxPoint x="600" y="327" as="targetPoint" />
          </mxGeometry>
        </mxCell>
      </root>
    </mxGraphModel>
  </diagram>
</mxfile>
